# xmcd
#
# Track frame offsets:
# 150
# 11720
# 27020
# 43520
# 59045
# 82445
# 100445
# 117020
# 132695
# 151445
# 167345
# 181145
#
# Disc length: 2660 seconds
#
#
# Revision: 0
# Processed by: cddbd v1.5.2PL0 Copyright (c) Steve Scherf et al.
# Submitted via: FreeRIP 2.951 
#
DISCID=a00a620c
DTITLE=Allan Mikusek - Stale hram...
DYEAR=1994
DGENRE=Country
TTITLE0=Stale hram
TTITLE1=Zapasnik
TTITLE2=Stastna ako zena ma byt
TTITLE3=Vtaci bal
TTITLE4=Len chciet-Vzdyt vis
TTITLE5=Znama vec
TTITLE6=Parketovy kral
TTITLE7=S diablom v dusi
TTITLE8=S klucikom na krku
TTITLE9=Dedusko sen
TTITLE10=Piesen studenych piv
TTITLE11=Show musi byt
EXTD=
EXTT0=
EXTT1=
EXTT2=
EXTT3=
EXTT4=
EXTT5=
EXTT6=
EXTT7=
EXTT8=
EXTT9=
EXTT10=
EXTT11=
PLAYORDER=
